# xmcd
#
# Track frame offsets: 
#        150
#        26175
#        53145
#        80295
#        109795
#        140320
#
# Disc length: 2071 seconds
#
# Revision: 7
# Processed by: cddbd v1.5.2PL0 Copyright (c) Steve Scherf et al.
# Submitted via: ExactAudioCopy v0.99pb5
#
DISCID=47081506
DTITLE=Sonny Rollins - Newk's Time
DYEAR=1957
DGENRE=Jazz
TTITLE0=TUNE UP
TTITLE1=ASIATIC RAES
TTITLE2=WONDERFUL! WONDERFUL!
TTITLE3=THE SURREY WITH THE FRINGE ON TOP
TTITLE4=BLUES FOR PHILLY JOE
TTITLE5=NAMELY YOU
EXTD=Newk's Time\n\n YEAR: 1957
EXTT0=
EXTT1=
EXTT2=
EXTT3=
EXTT4=
EXTT5=
PLAYORDER=
